<mxfile host="app.diagrams.net" modified="2021-02-23T08:58:25.269Z" agent="5.0 (Windows NT 10.0; Win64; x64) AppleWebKit/537.36 (KHTML, like Gecko) Chrome/88.0.4324.182 Safari/537.36" etag="y7IN6ZF9P9m84kW6u6Xj" version="14.2.9" type="github">
  <diagram id="5ZzwcQP33POSZCqt_7zO" name="Page-1">
    <mxGraphModel dx="868" dy="482" grid="1" gridSize="10" guides="1" tooltips="1" connect="1" arrows="1" fold="1" page="1" pageScale="1" pageWidth="827" pageHeight="1169" math="0" shadow="0">
      <root>
        <mxCell id="0" />
        <mxCell id="1" parent="0" />
        <mxCell id="JaJdwijuz5KYUCIjMC1w-1" value="" style="verticalLabelPosition=bottom;verticalAlign=top;html=1;shadow=0;dashed=0;strokeWidth=1;shape=mxgraph.android.tab2;strokeColor=#c0c0c0;direction=north;" vertex="1" parent="1">
          <mxGeometry x="80" y="270" width="230" height="140" as="geometry" />
        </mxCell>
        <mxCell id="JaJdwijuz5KYUCIjMC1w-2" value="Home" style="html=1;strokeColor=none;fillColor=#0079D6;labelPosition=center;verticalLabelPosition=middle;verticalAlign=top;align=center;fontSize=12;outlineConnect=0;spacingTop=-6;fontColor=#FFFFFF;shape=mxgraph.sitemap.home;" vertex="1" parent="1">
          <mxGeometry x="100" y="290" width="190" height="100" as="geometry" />
        </mxCell>
        <mxCell id="JaJdwijuz5KYUCIjMC1w-3" value="POI" style="html=1;strokeColor=none;fillColor=#0079D6;labelPosition=center;verticalLabelPosition=middle;verticalAlign=top;align=center;fontSize=12;outlineConnect=0;spacingTop=-6;fontColor=#FFFFFF;shape=mxgraph.sitemap.page;" vertex="1" parent="1">
          <mxGeometry x="350" y="290" width="190" height="100" as="geometry" />
        </mxCell>
        <mxCell id="JaJdwijuz5KYUCIjMC1w-10" value="" style="verticalLabelPosition=bottom;verticalAlign=top;html=1;shadow=0;dashed=0;strokeWidth=1;shape=mxgraph.android.tab2;strokeColor=#c0c0c0;direction=north;" vertex="1" parent="1">
          <mxGeometry x="330" y="270" width="230" height="140" as="geometry" />
        </mxCell>
        <mxCell id="JaJdwijuz5KYUCIjMC1w-14" value="login fatto all&#39;info point" style="text;html=1;resizable=0;autosize=1;align=center;verticalAlign=middle;points=[];fillColor=none;strokeColor=none;rounded=0;" vertex="1" parent="1">
          <mxGeometry x="130" y="240" width="130" height="20" as="geometry" />
        </mxCell>
        <mxCell id="JaJdwijuz5KYUCIjMC1w-15" value="apertura pagina web &lt;br&gt;al momento dell&#39;ingresso" style="text;html=1;resizable=0;autosize=1;align=center;verticalAlign=middle;points=[];fillColor=none;strokeColor=none;rounded=0;" vertex="1" parent="1">
          <mxGeometry x="375" y="235" width="150" height="30" as="geometry" />
        </mxCell>
        <mxCell id="JaJdwijuz5KYUCIjMC1w-16" value="NO POI" style="html=1;strokeColor=none;fillColor=#0079D6;labelPosition=center;verticalLabelPosition=middle;verticalAlign=top;align=center;fontSize=12;outlineConnect=0;spacingTop=-6;fontColor=#FFFFFF;shape=mxgraph.sitemap.error;" vertex="1" parent="1">
          <mxGeometry x="600" y="290" width="190" height="100" as="geometry" />
        </mxCell>
        <mxCell id="JaJdwijuz5KYUCIjMC1w-17" value="in caso di nessun access &lt;br&gt;point nei paraggi" style="text;html=1;resizable=0;autosize=1;align=center;verticalAlign=middle;points=[];fillColor=none;strokeColor=none;rounded=0;" vertex="1" parent="1">
          <mxGeometry x="620" y="235" width="150" height="30" as="geometry" />
        </mxCell>
        <mxCell id="JaJdwijuz5KYUCIjMC1w-18" value="" style="verticalLabelPosition=bottom;verticalAlign=top;html=1;shadow=0;dashed=0;strokeWidth=1;shape=mxgraph.android.tab2;strokeColor=#c0c0c0;direction=north;" vertex="1" parent="1">
          <mxGeometry x="580" y="270" width="230" height="140" as="geometry" />
        </mxCell>
      </root>
    </mxGraphModel>
  </diagram>
</mxfile>
